<svg xmlns="http://www.w3.org/2000/svg" width="52" height="52" viewBox="0 0 52 52">
    <defs>
        <linearGradient id="qvomdqg5ja" x1="50%" x2="50%" y1="17.886%" y2="100%">
            <stop offset="0%" stopColor="#5CDFBD"/>
            <stop offset="100%" stopColor="#03968B"/>
        </linearGradient>
    </defs>
    <g fill="none" fill-rule="evenodd">
        <g>
            <g>
                <g>
                    <g>
                        <g transform="translate(-33.000000, -314.000000) translate(20.000000, 310.000000) translate(13.000000, 4.000000)">
                            <circle cx="26" cy="26" r="26" fill="url(#qvomdqg5ja)" opacity=".148"/>
                            <g>
                                <g>
                                    <path fill="#9F6E50" d="M4.471 9.098H.893c-.615 0-1.023-.634-.766-1.19L3.744.08h5.434l-3.941 8.53c-.138.298-.437.489-.766.489z" transform="translate(4.333333, 8.666667) translate(6.784034, 29.200840)"/>
                                    <path fill="#88533A" d="M6.889.079l-3.941 8.53c-.138.298-.437.489-.766.489h2.29c.328 0 .627-.191.765-.489L9.177.08H6.89z" transform="translate(4.333333, 8.666667) translate(6.784034, 29.200840)"/>
                                    <path fill="#9F6E50" d="M25.268 9.098h3.578c.615 0 1.023-.634.766-1.19L25.995.08h-5.434l3.94 8.53c.138.298.437.489.767.489z" transform="translate(4.333333, 8.666667) translate(6.784034, 29.200840)"/>
                                    <path fill="#88533A" d="M29.612 7.908L25.995.08h-2.289l3.617 7.83c.257.555-.151 1.189-.766 1.189h2.29c.614 0 1.022-.634.765-1.19z" transform="translate(4.333333, 8.666667) translate(6.784034, 29.200840)"/>
                                </g>
                                <path fill="#0D8174" d="M43.359 6.698V30.11c0 .945-.7 1.743-1.637 1.866L22.81 34.437c-.75.097-1.51.097-2.261 0L1.637 31.975C.701 31.852 0 31.055 0 30.109V6.7c0-1.136.998-2.012 2.123-1.865L21.68 7.38l19.557-2.546c1.125-.147 2.123.73 2.123 1.864z" transform="translate(4.333333, 8.666667)"/>
                                <path fill="#0C7063" d="M41.224 4.832v25.766c0 .56-.197 1.072-.52 1.454l.996-.128c.949-.122 1.659-.918 1.659-1.862V6.695c0-1.128-1.002-2-2.135-1.863z" transform="translate(4.333333, 8.666667)"/>
                                <path fill="#009788" d="M43.359 6.697v20.565c0 .944-.7 1.741-1.637 1.864l-7.219.939-5.133.667-6.56.854c-.75.097-1.51.097-2.261 0l-6.56-.854-5.133-.667-7.219-.94C.701 29.004 0 28.207 0 27.263V6.697c0-1.134.998-2.01 2.123-1.863L21.68 7.377l19.557-2.543c1.125-.147 2.123.729 2.123 1.863z" transform="translate(4.333333, 8.666667)"/>
                                <path fill="#0D8174" d="M41.159 4.834l-1.34.175c.774.226 1.356.961 1.356 1.852v21.061c0 .488-.176.937-.47 1.279l.935-.123c.927-.122 1.62-.917 1.62-1.86V6.693c0-1.132-.987-2.006-2.101-1.86z" transform="translate(4.333333, 8.666667)"/>
                                <path fill="#FFE5C2" d="M30.61.15c-6.286.66-8.916 3.988-8.916 3.988l-1.145 9.408 1.145 13 9.05-1.932 8.097-.304c.391-.051.683-.385.683-.78V2.57c0-.526-.244-1.02-.663-1.337C37.705.358 35.015-.312 30.61.15z" transform="translate(4.333333, 8.666667)"/>
                                <path fill="#FED2A4" d="M38.86 1.247c-.588-.443-1.572-.833-2.973-1.05.264.125.49.26.675.4.42.315.665.81.665 1.336v22.45l1.612-.06c.392-.051.685-.385.685-.78V2.583c0-.525-.245-1.02-.665-1.336z" transform="translate(4.333333, 8.666667)"/>
                                <path fill="#FED2A4" d="M21.63 26.546l17.108-2.214s-2.124-3.655-8.213-3.021c-6.27.652-8.895 5.235-8.895 5.235z" transform="translate(4.333333, 8.666667)"/>
                                <path fill="#6C7FD8" d="M21.642 26.526l3.134-.373-3.146.393.012-.02z" transform="translate(4.333333, 8.666667)"/>
                                <path fill="#E2C09E" d="M38.836 24.275l-2.342.305c-.305-.48-2.333-3.332-7.293-3.153.434-.091.889-.164 1.364-.213 6.132-.643 8.271 3.06 8.271 3.06z" transform="translate(4.333333, 8.666667)"/>
                                <path fill="#FFE5C2" d="M12.732.15c6.273.66 8.898 3.988 8.898 3.988v22.408l-8.898-2.027-8.216-.21c-.39-.05-.682-.384-.682-.779V2.57c0-.526.245-1.02.662-1.337C5.65.358 8.336-.312 12.732.15z" transform="translate(4.333333, 8.666667)"/>
                                <path fill="#FED2A4" d="M19.369 2.36v23.667l2.261.52V4.216s-.706-.902-2.261-1.857z" transform="translate(4.333333, 8.666667)"/>
                                <path fill="#FED2A4" d="M21.63 26.546L4.523 24.332s2.123-3.655 8.212-3.021c6.27.652 8.895 5.235 8.895 5.235z" transform="translate(4.333333, 8.666667)"/>
                                <path fill="#E2C09E" d="M10.44 21.31c5.263.548 7.96 3.859 8.693 4.913l2.497.323s-2.627-4.583-8.904-5.235c-.923-.096-1.754-.094-2.5-.02.07.006.141.012.213.02z" transform="translate(4.333333, 8.666667)"/>
                                <path fill="#818181" d="M18.966 11.602c-.18 0-.36-.07-.497-.209-.013-.013-1.63-1.582-5.224-2.046-2.91-.376-5.789.664-5.818.675-.362.133-.763-.054-.895-.416-.133-.363.053-.765.415-.898.13-.048 3.231-1.168 6.476-.749 4.11.53 5.963 2.374 6.04 2.452.27.275.267.718-.007.99-.136.134-.313.2-.49.2zM15.43 5.997c-.064 0-.128-.008-.192-.026-.616-.173-1.274-.305-1.956-.392-.549-.07-1.136-.093-1.747-.072-.385.013-.706-.282-.72-.66-.013-.378.287-.695.67-.71.686-.023 1.35.004 1.975.084.75.095 1.477.24 2.16.433.37.103.583.483.477.846-.087.301-.365.497-.668.497zM18.97 15.338c-.178 0-.358-.07-.493-.209-.013-.013-1.62-1.583-5.19-2.047-.38-.05-.783-.077-1.196-.08-.383-.005-.69-.321-.686-.708.004-.384.314-.692.693-.692h.007c.467.004.924.036 1.36.092 4.083.53 5.923 2.375 6 2.453.268.275.265.718-.008.99-.135.134-.31.2-.486.2zM7.187 13.765c-.285 0-.552-.18-.655-.469-.133-.37.053-.779.415-.914.026-.01.66-.246 1.643-.468.376-.085.749.158.832.542.083.385-.154.766-.53.85-.885.2-1.46.413-1.466.415-.079.03-.16.044-.239.044z" transform="translate(4.333333, 8.666667)"/>
                                <path fill="#818181" d="M36.369 11.602c-.18 0-.361-.07-.498-.209-.013-.013-1.63-1.582-5.223-2.046-2.91-.376-5.79.664-5.818.675-.362.133-.763-.054-.896-.416-.132-.363.054-.765.416-.898.13-.048 3.23-1.168 6.476-.749 4.11.53 5.963 2.374 6.04 2.452.27.275.267.718-.008.99-.136.134-.313.2-.49.2z" transform="translate(4.333333, 8.666667) translate(30.478992, 9.733613) scale(-1, 1) translate(-30.478992, -9.733613)"/>
                                <path fill="#818181" d="M32.045 5.997c-.063 0-.127-.008-.19-.026-.617-.173-1.275-.305-1.957-.392-.549-.07-1.136-.093-1.747-.072-.385.013-.706-.282-.72-.66-.013-.378.287-.695.67-.71.686-.023 1.35.004 1.975.084.75.095 1.477.24 2.16.433.37.103.583.483.477.846-.087.301-.365.497-.668.497z" transform="translate(4.333333, 8.666667) translate(30.085714, 5.063445) scale(-1, 1) translate(-30.085714, -5.063445)"/>
                                <path fill="#818181" d="M31.457 15.338c-.179 0-.358-.07-.494-.209-.013-.013-1.619-1.583-5.189-2.047-.381-.05-.784-.077-1.196-.08-.383-.005-.69-.321-.686-.708.004-.384.313-.692.693-.692h.007c.466.004.924.036 1.36.092 4.082.53 5.923 2.375 5.999 2.453.269.275.265.718-.007.99-.135.134-.311.2-.487.2z" transform="translate(4.333333, 8.666667) translate(28.021008, 13.469748) scale(-1, 1) translate(-28.021008, -13.469748)"/>
                                <path fill="#818181" d="M34.815 13.765c-.285 0-.552-.18-.656-.469-.132-.37.054-.779.415-.914.027-.01.661-.246 1.644-.468.376-.085.748.158.832.542.083.385-.155.766-.53.85-.885.2-1.46.413-1.466.415-.08.03-.16.044-.239.044z" transform="translate(4.333333, 8.666667) translate(35.591597, 12.830672) scale(-1, 1) translate(-35.591597, -12.830672)"/>
                                <path fill="#818181" d="M18.966 19.074c-.18 0-.36-.07-.497-.209-.013-.012-1.63-1.582-5.224-2.046-2.91-.375-5.789.665-5.818.675-.362.133-.763-.053-.895-.416-.133-.363.053-.765.415-.898.13-.048 3.23-1.168 6.476-.748 4.11.53 5.963 2.373 6.04 2.451.27.276.267.719-.007.99-.136.134-.313.2-.49.2zM24.59 19.074c-.179 0-.357-.068-.492-.204-.272-.271-.276-.71-.006-.985.077-.078 1.93-1.923 6.04-2.454 3.245-.419 6.346.702 6.476.75.362.133.548.535.416.898-.133.363-.533.549-.895.417-.03-.011-2.92-1.05-5.819-.676-3.594.464-5.211 2.035-5.227 2.05-.136.136-.315.204-.493.204z" transform="translate(4.333333, 8.666667)"/>
                                <path fill="#E12836" d="M21.63 29.987c-.38 0-.688-.503-.688-1.124V5.253c0-.62.308-1.124.688-1.124.38 0 .688.504.688 1.125v23.61c0 .62-.308 1.123-.688 1.123z" transform="translate(4.333333, 8.666667)"/>
                            </g>
                        </g>
                    </g>
                </g>
            </g>
        </g>
    </g>
</svg>
