<svg xmlns="http://www.w3.org/2000/svg" width="52" height="52" viewBox="0 0 52 52">
    <defs>
        <linearGradient id="4im5yirs3a" x1="50%" x2="50%" y1="0%" y2="100%">
            <stop offset="17.886%" stopColor="#5CDFBD"/>
            <stop offset="100%" stopColor="#03968B"/>
        </linearGradient>
    </defs>
    <g fill="none" fill-rule="evenodd">
        <g>
            <g>
                <g>
                    <g>
                        <g transform="translate(-119.000000, -314.000000) translate(20.000000, 310.000000) translate(86.000000, 0.000000) translate(13.000000, 4.000000)">
                            <circle cx="26" cy="26" r="26" fill="url(#4im5yirs3a)" opacity=".148"/>
                            <g>
                                <path fill="#FFE5C2" d="M3.782 10.22v1.498c0-1.041-.847-1.885-1.891-1.885S0 10.677 0 11.719v7.274c0 1.412.437 2.79 1.252 3.946l1.49 2.11c.676.96 1.04 2.106 1.04 3.28v3.608c0 .53.43.96.963.96h10.923v-4.601c0-1.164.28-2.31.814-3.344l.623-1.202c.535-1.033.814-2.18.814-3.343V10.22H3.782z" transform="translate(7.041667, 8.666667)"/>
                                <path fill="#FED2A4" d="M16.05 10.2v10.195c0 1.165-.282 2.312-.82 3.347l-.627 1.203c-.538 1.034-.819 2.182-.819 3.346v4.607h1.87V28.29c0-1.164.28-2.312.82-3.346l.626-1.203c.538-1.035.82-2.182.82-3.347V10.2h-1.87z" transform="translate(7.041667, 8.666667)"/>
                                <path fill="#FFE5C2" d="M14.427 10.2h3.492V3.246c0-.98-.782-1.776-1.746-1.776s-1.746.795-1.746 1.776V10.2zM10.843 10.108h3.492V1.764C14.335.79 13.554 0 12.59 0c-.964 0-1.746.79-1.746 1.764v8.344z" transform="translate(7.041667, 8.666667)"/>
                                <path fill="#FED2A4" d="M16.173 1.47c-.338 0-.652.1-.919.268.497.313.829.87.829 1.508V10.2h1.836V3.246c0-.98-.782-1.776-1.746-1.776zM12.651 0c-.324 0-.627.087-.889.238.53.304.888.871.888 1.522V12.4c0 .663.542 1.2 1.211 1.2.313 0 .566-.251.566-.56V1.76c0-.972-.795-1.76-1.776-1.76z" transform="translate(7.041667, 8.666667)"/>
                                <path fill="#FFE5C2" d="M7.351 10.108h3.492V1.764C10.843.79 10.062 0 9.097 0c-.964 0-1.745.79-1.745 1.764v8.344z" transform="translate(7.041667, 8.666667)"/>
                                <path fill="#FED2A4" d="M9.067 0c-.324 0-.627.087-.889.238.53.304.888.871.888 1.522V12.4c0 .663.542 1.2 1.211 1.2.313 0 .566-.251.566-.56V1.76c0-.972-.795-1.76-1.776-1.76z" transform="translate(7.041667, 8.666667)"/>
                                <path fill="#FFE5C2" d="M3.768 10.2H7.26V2.956c0-.973-.782-1.761-1.746-1.761-.965 0-1.746.788-1.746 1.76V10.2z" transform="translate(7.041667, 8.666667)"/>
                                <path fill="#FED2A4" d="M5.575 1.103c-.324 0-.627.088-.888.239.53.306.887.877.887 1.531v9.612c0 .666.542 1.207 1.211 1.207.313 0 .566-.253.566-.564V2.873c0-.978-.795-1.77-1.776-1.77z" transform="translate(7.041667, 8.666667)"/>
                                <path fill="#FFE5C2" d="M35.9 9.834c-1.025.036-1.822.907-1.822 1.93v4.958-6.501H19.94v10.186c0 1.163.28 2.31.814 3.343l.623 1.202c.535 1.034.814 2.18.814 3.343v4.602h10.923c.532 0 .963-.43.963-.96v-3.609c0-1.173.363-2.318 1.04-3.278l1.49-2.111c.815-1.155 1.252-2.534 1.252-3.946v-7.274c0-1.064-.884-1.923-1.96-1.885z" transform="translate(7.041667, 8.666667)"/>
                                <path fill="#FFE5C2" d="M34.055 16.725V10.2" transform="translate(7.041667, 8.666667)"/>
                                <path fill="#FED2A4" d="M35.889 9.74c-.336 0-.65.09-.924.245.57.325.956.939.956 1.644v7.28c0 1.414-.434 2.794-1.244 3.95l-1.48 2.113c-.673.96-1.034 2.107-1.034 3.282v3.45h1.846v-3.45c0-1.175.361-2.321 1.035-3.282l1.48-2.113c.81-1.156 1.244-2.536 1.244-3.95v-7.28c0-1.043-.841-1.888-1.88-1.888z" transform="translate(7.041667, 8.666667)"/>
                                <path fill="#FFE5C2" d="M19.94 10.2V3.246c0-.98.782-1.776 1.747-1.776.964 0 1.746.795 1.746 1.776V10.2" transform="translate(7.041667, 8.666667)"/>
                                <path fill="#FED2A4" d="M21.748 1.47c-.324 0-.627.088-.888.239.53.306.887.875.887 1.528v9.15c0 .568.464 1.03 1.035 1.03h.176c.313 0 .567-.253.567-.564V3.237c0-.976-.796-1.767-1.777-1.767z" transform="translate(7.041667, 8.666667)"/>
                                <path fill="#FFE5C2" d="M23.525 12.778V1.76C23.525.788 24.306 0 25.27 0c.964 0 1.746.788 1.746 1.761V13.05" transform="translate(7.041667, 8.666667)"/>
                                <path fill="#FED2A4" d="M25.148 0c-.324 0-.627.087-.888.238.53.304.887.871.887 1.522v10.815c0 .566.464 1.025 1.035 1.025h.176c.313 0 .567-.251.567-.56V1.76c0-.972-.796-1.76-1.777-1.76z" transform="translate(7.041667, 8.666667)"/>
                                <path fill="#FFE5C2" d="M27.017 10.108V1.764C27.017.79 27.798 0 28.763 0c.964 0 1.746.79 1.746 1.764v8.344" transform="translate(7.041667, 8.666667)"/>
                                <path fill="#FED2A4" d="M28.732 0c-.324 0-.627.087-.888.238.53.304.887.871.887 1.522v11.023c0 .451.37.817.824.817h.387c.313 0 .567-.251.567-.56V1.76c0-.972-.796-1.76-1.777-1.76z" transform="translate(7.041667, 8.666667)"/>
                                <path fill="#FFE5C2" d="M30.509 13.14V2.876c0-.979.781-1.772 1.745-1.772.965 0 1.746.793 1.746 1.772v7.29" transform="translate(7.041667, 8.666667)"/>
                                <path fill="#FED2A4" d="M32.346 1.195c-.338 0-.652.098-.919.264.497.31.829.863.829 1.495v9.084l1.836-1.847V2.954c0-.972-.782-1.76-1.746-1.76z" transform="translate(7.041667, 8.666667)"/>
                                <path fill="#009788" d="M3.402 29.13h12.86c.459 0 .83.378.83.845v3.365c0 .466-.371.844-.83.844H3.403c-.458 0-.829-.378-.829-.844v-3.365c0-.467.371-.845.83-.845z" transform="translate(7.041667, 8.666667)"/>
                                <path fill="#0C7063" d="M16.19 29.13h-1.947c.448 0 .812.378.812.845v3.365c0 .466-.364.844-.812.844h1.946c.448 0 .811-.378.811-.844v-3.365c0-.467-.363-.845-.81-.845z" transform="translate(7.041667, 8.666667)"/>
                                <path fill="#009788" d="M21.597 29.13h12.86c.459 0 .83.378.83.845v3.365c0 .466-.371.844-.83.844h-12.86c-.458 0-.83-.378-.83-.844v-3.365c0-.467.372-.845.83-.845z" transform="translate(7.041667, 8.666667)"/>
                                <path fill="#0C7063" d="M34.462 29.13H32.53c.456 0 .825.378.825.845v3.365c0 .466-.37.844-.825.844h1.932c.455 0 .825-.378.825-.844v-3.365c0-.467-.37-.845-.825-.845z" transform="translate(7.041667, 8.666667)"/>
                                <path fill="#FED2A4" d="M32.15 10.2v5.829c0 .386-.157.755-.433 1.024l-2.195 2.133c-.757.737-1.313 1.664-1.607 2.682l-.229.797c-.102.357.102.73.458.833.357.103.729-.102.832-.46l.229-.797c.228-.792.66-1.514 1.251-2.089l3.112-3.024c.276-.268.432-.638.432-1.024V10.2h-1.85zM8.244 22.667l-.231-.797c-.296-1.015-.855-1.942-1.619-2.677l-2.21-2.13c-.278-.268-.435-.637-.435-1.022v-4.277c0-1.012-.784-1.878-1.8-1.929-.376-.019-.728.072-1.03.242.576.324.965.937.965 1.641v4.398c0 .386.157.754.436 1.022l3.134 3.02c.594.573 1.03 1.294 1.26 2.085l.231.796c.104.357.479.562.837.459.359-.103.565-.475.462-.831z" transform="translate(7.041667, 8.666667)"/>
                                <g fill="#0C7063" transform="translate(7.041667, 8.666667) translate(4.962227, 30.967970)">
                                    <circle cx=".752" cy=".711" r="1"/>
                                    <circle cx="27.273" cy=".711" r="1"/>
                                </g>
                            </g>
                        </g>
                    </g>
                </g>
            </g>
        </g>
    </g>
</svg>
