<svg xmlns="http://www.w3.org/2000/svg" width="52" height="52" viewBox="0 0 52 52">
    <defs>
        <linearGradient id="cd8psooa3a" x1="50%" x2="50%" y1="17.886%" y2="100%">
            <stop offset="0%" stopColor="#5CDFBD"/>
            <stop offset="100%" stopColor="#03968B"/>
        </linearGradient>
    </defs>
    <g fill="none" fill-rule="evenodd">
        <g>
            <g>
                <g>
                    <g>
                        <g transform="translate(-291.000000, -416.000000) translate(20.000000, 310.000000) translate(258.000000, 102.000000) translate(13.000000, 4.000000)">
                            <circle cx="26" cy="26" r="26" fill="url(#cd8psooa3a)" opacity=".148"/>
                            <g>
                                <path fill="#0C7063" d="M3.63 1.077L3.546 0H2.353C1.097 0 .078 1.019.078 2.276v38.781c0 1.257 1.018 2.276 2.275 2.276h1.193l.084-1.077V1.077z" transform="translate(8.666667, 4.333333)"/>
                                <path fill="#0D8174" d="M3.546 38.001v5.332H33.66c.251 0 .455-.203.455-.455v-7.153H5.821c-1.257 0-2.275 1.02-2.275 2.276z" transform="translate(8.666667, 4.333333)"/>
                                <path fill="#F7F9FA" d="M5.821 35.868c-1.256 0-2.275 1.02-2.275 2.276v2.185h26.928c.251 0 .455-.204.455-.455v-4.006H5.82z" transform="translate(8.666667, 4.333333)"/>
                                <path fill="#E9EDF1" d="M6.339 37.917c0-.234.19-.424.423-.424h2.085v-1.625H5.821c-1.257 0-2.276 1.02-2.276 2.276v2.185H6.34v-2.412zM10.253 37.493L30.929 37.493 30.929 38.763 10.253 38.763z" transform="translate(8.666667, 4.333333)"/>
                                <path fill="#009788" d="M3.546 0v38.144c0-1.257 1.018-2.276 2.275-2.276h28.294V.455c0-.251-.204-.455-.455-.455H3.546z" transform="translate(8.666667, 4.333333)"/>
                                <path fill="#0D8174" d="M6.9 29.79c-.132-.01-.233-.12-.233-.253V6.104c0-.132.101-.242.233-.253.774-.063 1.467-.443 1.947-1.009V0H3.546v38.144c0-1.257 1.018-2.276 2.275-2.276h3.026v-5.07c-.48-.565-1.173-.945-1.947-1.008z" transform="translate(8.666667, 4.333333)"/>
                                <path fill="#FFE06E" d="M9.774 32.644c-.133 0-.243-.102-.254-.234-.112-1.382-1.238-2.508-2.62-2.62-.132-.01-.233-.12-.233-.253V6.104c0-.132.101-.242.233-.253 1.382-.112 2.508-1.239 2.62-2.62.011-.132.121-.234.254-.234h18.113c.132 0 .243.102.253.234.112 1.381 1.239 2.508 2.62 2.62.132.01.234.12.234.253v23.433c0 .132-.102.242-.234.253-1.381.112-2.508 1.238-2.62 2.62-.01.132-.12.234-.253.234H9.774z" transform="translate(8.666667, 4.333333)"/>
                                <path fill="#FFD13E" d="M13.142 32.41c-.112-1.382-1.238-2.508-2.62-2.62-.132-.01-.233-.12-.233-.253V17.945L9.23 16.83c-.16-.168-.16-.432 0-.6l1.058-1.115V6.104c0-.132.101-.242.233-.253 1.382-.112 2.508-1.239 2.62-2.62.011-.132.121-.234.254-.234H9.774c-.133 0-.243.102-.254.234-.112 1.381-1.238 2.508-2.62 2.62-.132.01-.233.12-.233.253v23.433c0 .132.101.242.233.253 1.382.112 2.508 1.238 2.62 2.62.011.132.121.234.254.234h3.622c-.133 0-.243-.102-.254-.234z" transform="translate(8.666667, 4.333333)"/>
                                <path fill="#E12836" d="M10.253 41.083v-3.59h-3.49c-.235 0-.424.19-.424.424v3.166c0 .193.207.316.376.222l1.581-.87 1.581.87c.17.094.376-.029.376-.222z" transform="translate(8.666667, 4.333333)"/>
                                <path fill="#FFF" d="M24.184 29.857H13.477c-.35 0-.635-.284-.635-.634 0-.35.285-.635.635-.635h10.707c.35 0 .634.284.634.635 0 .35-.284.634-.634.634z" transform="translate(8.666667, 4.333333)"/>
                                <g fill="#000">
                                    <path d="M9.86 12.461c-.692-.08-1.163-.258-1.56-.59-.411-.344-.692-.838-.886-1.56-.131-.488-.173-.778-.254-1.749-.012-.14-.031-.347-.043-.46l-.022-.206-.05.11c-.051.114-.358.547-.604.853-.231.288-1.113 1.077-1.583 1.416-.587.425-1.507.915-2.123 1.133-.515.181-1.228.242-1.656.142-.52-.123-.88-.57-1.026-1.274-.152-.735.02-1.587.564-2.777l.244-.54c.392-.874.718-1.388.817-1.289.02.02-.083.26-.324.752-.09.184-.212.448-.269.587l-.214.522c-.195.471-.357.958-.408 1.22-.05.26-.064.738-.026.897.066.28.266.486.631.649.22.098.803.119 1.205.044.436-.082 1.124-.339 1.551-.58.103-.057.193-.104.201-.104.008 0 .29-.185.625-.411.408-.275.72-.514.942-.722.376-.352.733-.726.873-.914.052-.07.111-.146.133-.169.022-.022.092-.13.157-.238.103-.17.118-.22.113-.37-.007-.217-.18-.927-.392-1.62C6.02 3.73 6.02 3.733 5.472 2.546c-.068-.147-.143-.317-.166-.378-.023-.061-.105-.257-.183-.436l-.142-.324.165-.675c.091-.372.177-.696.19-.72.018-.032.05 0 .113.11.05.087.107.178.129.204.142.172.66 1.183.976 1.91.422.97.836 2.59.964 3.777.03.277.067.498.083.493.016-.005.051-.066.078-.135.097-.25.392-.568.847-.912.225-.17.704-.497.969-.663.42-.263 1.617-.854 2.27-1.121.139-.057.292-.122.34-.144.08-.038.092-.034.152.042l.065.083.165-.064c.411-.162.442-.18.404-.25-.019-.036-.048-.064-.066-.064-.021 0-.021.02 0 .059.028.053.004.07-.226.161l-.258.102-.09-.106c-.117-.136-.364-.635-.406-.82-.106-.472.036-.982.315-1.125.314-.163 1.002-.038 1.699.309.239.118.83.473 1.028.616.018.012-.255 1.036-.285 1.07-.014.015-.287.117-.606.226-.32.108-.653.225-.74.258l-.159.061.01.206c.018.327-.144.639-.196.379-.01-.053-.05-.168-.088-.256-.052-.122-.08-.155-.12-.139-.027.012-.272.106-.542.209-.854.325-1.645.7-2.022.957-.143.098-.322.212-.397.255-.403.228-.945.57-.945.595 0 .018.387.023.976.014.536-.009 2.075-.024 3.42-.034 1.343-.01 2.782-.036 3.197-.056.58-.029.754-.029.754 0 0 .02-.044.12-.097.222-.053.102-.172.356-.265.566-.193.436-.118.39-.748.457-.572.061-1.919.368-2.524.575-.157.054-.522.17-.81.256-.288.086-.595.185-.682.218l-.413.155c-.255.097-.472.19-.825.354l-.46.214c-.612.283-1.253.775-1.452 1.113l-.084.144.137.117c.369.318 1.231.666 1.651.666h.097v.217c0 .12-.01.39-.02.603l-.021.386-.337-.005c-.185-.003-.379-.01-.431-.016zm-1.416-2.09c.005-.433.192-.82.593-1.228.337-.34.746-.634 1.204-.862.568-.284 1.424-.668 1.643-.736.156-.05.182-.069.182-.136v-.078l-1.817.02c-1 .012-1.987.031-2.194.042l-.378.02.022.194c.011.106.041.415.066.685.081.88.126 1.145.277 1.619.085.268.324.729.378.73.012 0 .023-.121.024-.27zm4.734-7.289l.387-.163-.075-.06c-.226-.179-.736-.335-.985-.302-.164.022-.178.04-.102.126.035.039.134.181.22.317.086.134.16.245.162.246.004 0 .18-.074.393-.164zM8.51 1.362c-.152-.05-.184-.138-.227-.616-.035-.403-.035-.414.035-.527.039-.063.082-.115.095-.115.014 0 .034.209.045.464.011.272.035.482.056.508.088.106.368.013.334-.11-.008-.03-.024-.19-.036-.357-.016-.24-.01-.33.029-.423.027-.065.062-.11.078-.1.016.009.038.199.05.422.012.223.036.444.055.491.043.112.135.14.237.073.072-.047.079-.068.063-.201-.06-.494-.057-.62.015-.735.066-.106.07-.108.095-.043.014.038.035.275.047.527.02.41.016.47-.035.556-.031.053-.091.112-.133.131-.11.05-.282.042-.341-.017-.047-.047-.056-.047-.11.001-.09.082-.23.11-.352.07z" transform="translate(8.666667, 4.333333) translate(10.240885, 11.595052)"/>
                                </g>
                            </g>
                        </g>
                    </g>
                </g>
            </g>
        </g>
    </g>
</svg>
