<svg xmlns="http://www.w3.org/2000/svg" width="52" height="52" viewBox="0 0 52 52">
    <defs>
        <linearGradient id="9pfr901pga" x1="50%" x2="50%" y1="0%" y2="100%">
            <stop offset="17.886%" stopColor="#5CDFBD"/>
            <stop offset="100%" stopColor="#03968B"/>
        </linearGradient>
    </defs>
    <g fill="none" fill-rule="evenodd">
        <g>
            <g>
                <g>
                    <g>
                        <g transform="translate(-33.000000, -416.000000) translate(20.000000, 310.000000) translate(0.000000, 102.000000) translate(13.000000, 4.000000)">
                            <circle cx="26" cy="26" r="26" fill="url(#9pfr901pga)" opacity=".148"/>
                            <g>
                                <path fill="#818181" d="M41.732 39.833h-40.3c-.908 0-1.587-.835-1.4-1.724l1.166-6.117c.14-.663.724-1.138 1.401-1.138h37.966c.677 0 1.262.475 1.4 1.138l1.168 6.117c.186.889-.493 1.724-1.401 1.724z" transform="translate(26.333333, 27.833333) scale(-1, 1) translate(-26.333333, -27.833333) translate(4.333333, 7.833333)"/>
                                <path fill="#595959" d="M43.132 38.109l-1.166-6.117c-.14-.663-.724-1.138-1.401-1.138h-1.976c.677 0 1.262.475 1.4 1.138l1.167 6.117c.187.889-.492 1.724-1.4 1.724h1.976c.908 0 1.587-.835 1.4-1.724z" transform="translate(26.333333, 27.833333) scale(-1, 1) translate(-26.333333, -27.833333) translate(4.333333, 7.833333)"/>
                                <path fill="#009788" d="M23.634 32.379l11.114 3.214c2.254 0 4.081-1.827 4.081-4.08V21.106c0-2.708-.888-5.355-2.588-7.464-1.224-1.52-2.898-2.808-5.053-2.808l-3.176.038v13.722c0 .722-.585 1.307-1.306 1.307h-3.072l-.744 3.381.744 3.096z" transform="translate(26.333333, 27.833333) scale(-1, 1) translate(-26.333333, -27.833333) translate(4.333333, 7.833333)"/>
                                <path fill="#0C7063" d="M36.24 13.643c-1.224-1.52-2.897-2.808-5.052-2.808l-1.54.018c1.946.16 3.476 1.375 4.616 2.79 1.7 2.109 2.589 4.756 2.589 7.464v10.405c0 2.254-1.827 4.081-4.081 4.081h1.976c2.254 0 4.081-1.827 4.081-4.08V21.106c0-2.708-.888-5.355-2.588-7.464z" transform="translate(26.333333, 27.833333) scale(-1, 1) translate(-26.333333, -27.833333) translate(4.333333, 7.833333)"/>
                                <path fill="#9F6E50" d="M16.274 28.94v3.614c0 1.678 1.36 3.04 3.04 3.04h4.32v-9.692h-4.32c-1.68 0-3.04 1.36-3.04 3.039z" transform="translate(26.333333, 27.833333) scale(-1, 1) translate(-26.333333, -27.833333) translate(4.333333, 7.833333)"/>
                                <path fill="#88533A" d="M21.657 25.902L23.634 25.902 23.634 35.593 21.657 35.593z" transform="translate(26.333333, 27.833333) scale(-1, 1) translate(-26.333333, -27.833333) translate(4.333333, 7.833333)"/>
                                <path fill="#FFE5C2" d="M32.863 32.125h-2.009l-.326 1.736.326 1.732h1.409l1.115 1.3c.098.113.241.179.392.179h1.433c.363 0 .612-.365.48-.703l-1.224-3.151c-.256-.659-.89-1.093-1.596-1.093z" transform="translate(26.333333, 27.833333) scale(-1, 1) translate(-26.333333, -27.833333) translate(4.333333, 7.833333)"/>
                                <path fill="#FED2A4" d="M35.684 36.369l-1.225-3.151c-.256-.659-.89-1.092-1.596-1.092H31.05c.706 0 1.34.433 1.596 1.092l1.225 3.151c.106.274-.038.566-.29.666.06.024.123.037.189.037h1.433c.363 0 .612-.365.48-.703z" transform="translate(26.333333, 27.833333) scale(-1, 1) translate(-26.333333, -27.833333) translate(4.333333, 7.833333)"/>
                                <path fill="#9F6E50" d="M19.693 35.593h11.161v-4.019c0-.397-.322-.72-.72-.72h-10.44v4.739z" transform="translate(26.333333, 27.833333) scale(-1, 1) translate(-26.333333, -27.833333) translate(4.333333, 7.833333)"/>
                                <path fill="#88533A" d="M30.135 30.854h-1.977c.398 0 .72.323.72.72v4.019h1.977v-4.019c0-.397-.323-.72-.72-.72z" transform="translate(26.333333, 27.833333) scale(-1, 1) translate(-26.333333, -27.833333) translate(4.333333, 7.833333)"/>
                                <path fill="#FFF9D8" d="M12.318 37.249h-6.74c-.36 0-.634-.323-.575-.678l.443-2.683c.047-.282.29-.488.575-.488h6.297c.322 0 .583.261.583.583v2.683c0 .322-.261.583-.583.583z" transform="translate(26.333333, 27.833333) scale(-1, 1) translate(-26.333333, -27.833333) translate(4.333333, 7.833333)"/>
                                <path fill="#FFE06E" d="M12.318 33.4h-1.976c.322 0 .583.261.583.583v2.683c0 .322-.261.583-.583.583h1.976c.322 0 .583-.261.583-.583v-2.683c0-.322-.261-.583-.583-.583z" transform="translate(26.333333, 27.833333) scale(-1, 1) translate(-26.333333, -27.833333) translate(4.333333, 7.833333)"/>
                                <path fill="#FFE5C2" d="M26.468 11.62h.003c2.947.801 5.986-.939 6.787-3.886l.287-1.14-3.46-2.379-5.078-.144-.898 3.43c-.486 1.788.57 3.633 2.36 4.118z" transform="translate(26.333333, 27.833333) scale(-1, 1) translate(-26.333333, -27.833333) translate(4.333333, 7.833333)"/>
                                <path fill="#FED2A4" d="M31.861 5.437l-.292 1.158-.287 1.14c-.577 2.122-2.314 3.618-4.342 3.99 2.794.507 5.56-1.2 6.318-3.99l.287-1.14-1.684-1.158z" transform="translate(26.333333, 27.833333) scale(-1, 1) translate(-26.333333, -27.833333) translate(4.333333, 7.833333)"/>
                                <path fill="#0C7063" d="M34.04 29.647c-.166 0-.334-.064-.462-.192l-2.567-2.567c-.255-.255-.255-.669 0-.924.256-.256.67-.256.925 0l2.567 2.567c.256.255.256.67 0 .924-.128.128-.295.192-.462.192z" transform="translate(26.333333, 27.833333) scale(-1, 1) translate(-26.333333, -27.833333) translate(4.333333, 7.833333)"/>
                                <path fill="#FFE5C2" d="M16.646 17.254l.098-1.008c.026-.27.352-.39.548-.202l1.173 1.124c.16.153.352.27.562.34l1.83.606v1.666l-1.126 1.344-2.52-2.369c-.412-.386-.62-.94-.565-1.5z" transform="translate(26.333333, 27.833333) scale(-1, 1) translate(-26.333333, -27.833333) translate(4.333333, 7.833333)"/>
                                <path fill="#03978B" d="M32.048 13.913l-.05-.018c-1.064-.398-2.25.142-2.647 1.206l-1.697 4.536-5.801-2.17c-.366-.136-.773.05-.91.415l-1.212 3.242 8.078 3.021c1.264.473 2.672-.169 3.145-1.433l2.3-6.151c.398-1.064-.142-2.25-1.206-2.648z" transform="translate(26.333333, 27.833333) scale(-1, 1) translate(-26.333333, -27.833333) translate(4.333333, 7.833333)"/>
                                <path fill="#0C7063" d="M32.048 13.913l-.05-.018c-.58-.217-1.196-.155-1.701.119.913.471 1.35 1.56.981 2.547l-2.3 6.151c-.241.644-.724 1.125-1.307 1.381l.138.052c1.264.473 2.672-.169 3.145-1.433l2.3-6.151c.398-1.064-.142-2.25-1.206-2.648z" transform="translate(26.333333, 27.833333) scale(-1, 1) translate(-26.333333, -27.833333) translate(4.333333, 7.833333)"/>
                                <path fill="#818181" d="M15.167 15.943L20.678 19.25 21.667 17.772 16.622 14.917z" transform="translate(26.333333, 27.833333) scale(-1, 1) translate(-26.333333, -27.833333) translate(4.333333, 7.833333)"/>
                                <path fill="#050505" d="M24.707 4.786L33.506 7.485 34.707 3.36 25.965 0.485z" transform="translate(26.333333, 27.833333) scale(-1, 1) translate(-26.333333, -27.833333) translate(4.333333, 7.833333)"/>
                            </g>
                        </g>
                    </g>
                </g>
            </g>
        </g>
    </g>
</svg>
